Akaashvani 2013 Hindi Movies DVDScr XviD Sample Included ~ rDX

Screen Shots :
 
http://myimghost.no-ip.biz/Akaashvani.html
 
http://myimghost.cwahi.net/Akaashvani.html


Format                                   : AVI
Format/Info                              : Audio Video Interleave
File size                                : 688 MiB
Duration                                 : 2h 13mn
Overall bit rate                         : 722 Kbps
Writing library                          : MPlayer

Video
ID                                       : 0
Format                                   : MPEG-4 Visual
Format profile                           : Advanced Simple@L5
Format settings, BVOP                    : 3
Format settings, QPel                    : No
Format settings, GMC                     : No warppoints
Format settings, Matrix                  : Custom
Codec ID                                 : XVID
Codec ID/Hint                            : XviD
Duration                                 : 2h 13mn
Bit rate                                 : 637 Kbps
Width                                    : 608 pixels
Height                                   : 256 pixels
Display aspect ratio                     : 2.40:1
Frame rate                               : 23.976 fps
Color space                              : YUV
Chroma subsampling                       : 4:2:0
Bit depth                                : 8 bits
Scan type                                : Progressive
Compression mode                         : Lossy
Bits/(Pixel*Frame)                       : 0.171
Stream size                              : 607 MiB (88%)
Writing library                          : XviD 1.2.1 (UTC 2008-12-04)

Audio
ID                                       : 1
Format                                   : MPEG Audio
Format version                           : Version 1
Format profile                           : Layer 3
Mode                                     : Joint stereo
Mode extension                           : Intensity Stereo + MS Stereo
Codec ID                                 : 55
Codec ID/Hint                            : MP3
Duration                                 : 2h 13mn
Bit rate mode                            : Constant
Bit rate                                 : 80.0 Kbps
Channel(s)                               : 2 channels
Sampling rate                            : 32.0 KHz
Compression mode                         : Lossy
Stream size                              : 76.2 MiB (11%)
Alignment                                : Aligned on interleaves
Interleave, duration                     : 468 ms (11.22 video frames)
Interleave, preload duration             : 936 ms